<?xml version="1.0" encoding="utf-8"?>
<!-- Generator: Adobe Illustrator 28.1.0, SVG Export Plug-In . SVG Version: 6.00 Build 0)  -->
<svg version="1.1" id="Layer_1" xmlns="http://www.w3.org/2000/svg" xmlns:xlink="http://www.w3.org/1999/xlink" x="0px" y="0px"
	 viewBox="0 0 150 27" style="enable-background:new 0 0 150 27;" xml:space="preserve">
<style type="text/css">
	.st0{fill-rule:evenodd;clip-rule:evenodd;fill:#C63541;}
	.st1{fill-rule:evenodd;clip-rule:evenodd;fill:#C63540;}
</style>
<g id="_2177190509760">
	<path class="st0" d="M20,18.9c-0.3,7,8.3,8.6,13,7.3c5-1.3,7-5.8,5.1-9.4c-2.6-4.8-11.6-5.1-13.3-7.5c-2.6-3.6,2.7-8.3,7.6-5.4
		c4.3,2.6,0.7,4.8,6.1,4.2c0-3.4-1.5-5.2-3.7-6.4c-2.3-1.4-5.6-1.8-8.5-0.9c-2.8,0.8-4.8,2.2-5.5,4.7c-0.9,3,0.2,5.4,2.6,7
		c2.9,2,8.9,3,10.7,4.7c3.3,3.2-0.9,7.9-6,6.7c-1.4-0.3-2.5-1.1-3.2-1.8c-1-1-1.1-1.8-1.9-3.1L20,18.9z"/>
	<path class="st0" d="M64.2,1c-0.3,2.6,0,6.1-0.1,8.9c-0.1,2.9,0.1,5.9,0.1,8.8c0.1,3.1,1.1,4.7,2.7,6c4.3,3.3,15.9,3.6,16.5-6
		c0.2-2.2,0.2-15.9-0.2-17.5c-1-0.3-2.1-0.5-3.2-0.2C79.9,2.2,80,13.2,80,15.5c0,2.4,0.2,4.5-1.1,6.1c-1,1.3-2.7,2.2-5.1,2.3
		c-6.3,0-6-5-6-8.6c0-4.8-0.1-9.6,0-14.5C66.8,0.8,65,0.6,64.2,1z"/>
	<path class="st1" d="M3.9,3.5h13V0.8h-31.6C-15,4.2-14.8,15.3-14.8,20c0,6.5,14.3,6.3,17.1,6.3c3.2-0.1,12.9,0.2,14.6-0.2
		c0.3-0.9,0.2-1.5,0.2-2.7H3.8l0.1-9.1l11.5-0.1v-2.6H3.8L3.9,3.5z"/>
	<path class="st0" d="M96.3,8.1c0.2-0.5,0.3-0.9,0.5-1.4c0.4-1.1,0.2-1,0.7-1.3l4,11.2h-8.3L96.3,8.1z M88.5,26.3
		c1.2,0,1.3-0.5,1.6-1.5c1.8-5.1,1.2-5.1,4-5.1l7.4-0.1c2.6-0.2,1.8,7,5,6.8l1.9-0.2c-0.1-1-0.8-2.4-1.2-3.4L101,6.1
		c-0.5-1.1-0.9-2.3-1.3-3.4c-0.5-1.4-0.7-2-2.4-2c-1.8,0-1.8,0.9-2.4,2.6c-1.3,3.4-8.6,21.6-8.8,23H88.5z"/>
	<path class="st0" d="M121.2,3.4c1.5,0,7.3,0.2,8.2-0.1V0.8c-1-0.2-15.2-0.1-18.3-0.1c-1.2,0-1.7,0.1-1.3,2.8h8.1v22.6l3.3-0.1
		l0.1-3.5V3.4z"/>
	<path class="st0" d="M52.9,3.4H61V0.8H41.3l0.1,2.8l8.1,0.1c0,3-0.2,21.2,0.1,22.5c3.1,0.1,3.3,0.3,3.3-1.2V3.4z"/>
	<path class="st1" d="M136.7,3.5L150,3.4V0.8h-17.1l0.1,25.3l17,0.1c0.2-0.1,0.2-2.3,0.2-2.7h-13.6l0.1-9.1l11.5-0.1v-2.6h-11.5
		L136.7,3.5z"/>
</g>
</svg>
